<mxfile host="Electron" modified="2024-02-29T10:00:52.793Z" agent="Mozilla/5.0 (Windows NT 10.0; Win64; x64) AppleWebKit/537.36 (KHTML, like Gecko) draw.io/23.0.2 Chrome/120.0.6099.109 Electron/28.1.0 Safari/537.36" etag="7fkL00VWBd3DfsO_ty2p" version="23.0.2" type="device">
  <diagram name="Функциональная схема" id="rFmSgfRRl_OfuR-oWHls">
    <mxGraphModel dx="1167" dy="797" grid="1" gridSize="10" guides="1" tooltips="1" connect="1" arrows="1" fold="1" page="1" pageScale="1" pageWidth="827" pageHeight="1169" math="0" shadow="0">
      <root>
        <mxCell id="0" />
        <mxCell id="1" parent="0" />
        <mxCell id="4OKsengiXGphoASJLnkh-17" style="edgeStyle=orthogonalEdgeStyle;rounded=0;orthogonalLoop=1;jettySize=auto;html=1;exitX=0.5;exitY=1;exitDx=0;exitDy=0;entryX=0.5;entryY=0;entryDx=0;entryDy=0;fontFamily=Helvetica;fontSize=12;fontColor=default;strokeWidth=2;strokeColor=#23445D;" edge="1" parent="1" source="I8m9MBqK9SB50qhsN7_r-1" target="4OKsengiXGphoASJLnkh-7">
          <mxGeometry relative="1" as="geometry" />
        </mxCell>
        <mxCell id="4OKsengiXGphoASJLnkh-21" value="" style="edgeStyle=orthogonalEdgeStyle;rounded=0;orthogonalLoop=1;jettySize=auto;html=1;fontFamily=Helvetica;fontSize=12;fontColor=default;strokeWidth=2;strokeColor=#23445D;" edge="1" parent="1" source="I8m9MBqK9SB50qhsN7_r-1" target="4OKsengiXGphoASJLnkh-7">
          <mxGeometry relative="1" as="geometry" />
        </mxCell>
        <mxCell id="I8m9MBqK9SB50qhsN7_r-1" value="Начало" style="rounded=1;whiteSpace=wrap;html=1;strokeWidth=3;arcSize=50;fontSize=20;fontFamily=Times New Roman;strokeColor=#23445D;" parent="1" vertex="1">
          <mxGeometry x="280" y="40" width="280" height="60" as="geometry" />
        </mxCell>
        <mxCell id="4OKsengiXGphoASJLnkh-20" style="edgeStyle=orthogonalEdgeStyle;rounded=0;orthogonalLoop=1;jettySize=auto;html=1;exitX=0.5;exitY=1;exitDx=0;exitDy=0;fontFamily=Helvetica;fontSize=12;fontColor=default;strokeWidth=2;strokeColor=#23445D;" edge="1" parent="1" source="4OKsengiXGphoASJLnkh-7" target="4OKsengiXGphoASJLnkh-8">
          <mxGeometry relative="1" as="geometry" />
        </mxCell>
        <mxCell id="4OKsengiXGphoASJLnkh-7" value="&lt;font style=&quot;font-size: 15px;&quot;&gt;&lt;br style=&quot;border-color: var(--border-color); font-size: 15px;&quot;&gt;Ввод данных для поиска&lt;br style=&quot;border-color: var(--border-color); font-size: 15px;&quot;&gt;&lt;span style=&quot;border-color: var(--border-color); font-size: 15px;&quot;&gt;(пункт отправления, пункт назначения, дата)&lt;/span&gt;&lt;/font&gt;" style="shape=manualInput;whiteSpace=wrap;html=1;strokeColor=#23445D;strokeWidth=3;align=center;verticalAlign=middle;fontFamily=Times New Roman;fontSize=15;fontColor=default;fillColor=default;" vertex="1" parent="1">
          <mxGeometry x="280" y="140" width="280" height="80" as="geometry" />
        </mxCell>
        <mxCell id="4OKsengiXGphoASJLnkh-8" value="Список рейсов:&lt;br style=&quot;font-size: 15px;&quot;&gt;отображение доступных рейсов&lt;br style=&quot;font-size: 15px;&quot;&gt;в соответствии с запросом" style="shape=display;whiteSpace=wrap;html=1;strokeColor=#23445D;strokeWidth=3;align=center;verticalAlign=middle;fontFamily=Times New Roman;fontSize=15;fontColor=default;fillColor=default;" vertex="1" parent="1">
          <mxGeometry x="280" y="260" width="280" height="80" as="geometry" />
        </mxCell>
        <mxCell id="4OKsengiXGphoASJLnkh-22" style="edgeStyle=orthogonalEdgeStyle;rounded=0;orthogonalLoop=1;jettySize=auto;html=1;exitX=0.5;exitY=1;exitDx=0;exitDy=0;entryX=0.5;entryY=0;entryDx=0;entryDy=0;fontFamily=Helvetica;fontSize=12;fontColor=default;strokeWidth=2;strokeColor=#23445D;" edge="1" parent="1" source="4OKsengiXGphoASJLnkh-9" target="4OKsengiXGphoASJLnkh-11">
          <mxGeometry relative="1" as="geometry" />
        </mxCell>
        <mxCell id="4OKsengiXGphoASJLnkh-9" value="&lt;font style=&quot;font-size: 15px;&quot; face=&quot;Times New Roman&quot;&gt;Выбор желаемого рейса&lt;br&gt;&lt;/font&gt;" style="rounded=0;whiteSpace=wrap;html=1;strokeColor=#23445D;strokeWidth=3;align=center;verticalAlign=middle;fontFamily=Helvetica;fontSize=12;fontColor=default;fillColor=default;" vertex="1" parent="1">
          <mxGeometry x="280" y="380" width="280" height="80" as="geometry" />
        </mxCell>
        <mxCell id="4OKsengiXGphoASJLnkh-38" style="edgeStyle=orthogonalEdgeStyle;rounded=0;orthogonalLoop=1;jettySize=auto;html=1;exitX=0.5;exitY=1;exitDx=0;exitDy=0;entryX=0.5;entryY=0;entryDx=0;entryDy=0;fontFamily=Helvetica;fontSize=12;fontColor=default;strokeWidth=2;strokeColor=#23445D;" edge="1" parent="1" source="4OKsengiXGphoASJLnkh-11" target="4OKsengiXGphoASJLnkh-37">
          <mxGeometry relative="1" as="geometry" />
        </mxCell>
        <mxCell id="4OKsengiXGphoASJLnkh-11" value="&lt;font style=&quot;font-size: 15px;&quot; face=&quot;Times New Roman&quot;&gt;Проверка доступности мест:&lt;br&gt;&lt;span style=&quot;border-color: var(--border-color); color: rgb(13, 13, 13); text-align: left; background-color: rgb(255, 255, 255);&quot;&gt;система проверяет наличие&lt;br&gt;свободных мест на выбранном рейсе&lt;/span&gt;&lt;/font&gt;" style="shape=process;whiteSpace=wrap;html=1;backgroundOutline=1;strokeColor=#23445D;strokeWidth=3;align=center;verticalAlign=middle;fontFamily=Helvetica;fontSize=12;fontColor=default;fillColor=default;size=0.03571428571428571;" vertex="1" parent="1">
          <mxGeometry x="280" y="500" width="280" height="80" as="geometry" />
        </mxCell>
        <mxCell id="4OKsengiXGphoASJLnkh-44" style="edgeStyle=orthogonalEdgeStyle;rounded=0;orthogonalLoop=1;jettySize=auto;html=1;exitX=0.5;exitY=1;exitDx=0;exitDy=0;entryX=0.5;entryY=0;entryDx=0;entryDy=0;fontFamily=Helvetica;fontSize=12;fontColor=default;strokeColor=#23445D;strokeWidth=2;" edge="1" parent="1" source="4OKsengiXGphoASJLnkh-12" target="4OKsengiXGphoASJLnkh-31">
          <mxGeometry relative="1" as="geometry" />
        </mxCell>
        <mxCell id="4OKsengiXGphoASJLnkh-12" value="&lt;br&gt;Ввод личных данных пассажира" style="shape=manualInput;whiteSpace=wrap;html=1;strokeColor=#23445D;strokeWidth=3;align=center;verticalAlign=middle;fontFamily=Times New Roman;fontSize=15;fontColor=default;fillColor=default;" vertex="1" parent="1">
          <mxGeometry x="280" y="1220" width="280" height="80" as="geometry" />
        </mxCell>
        <mxCell id="4OKsengiXGphoASJLnkh-13" value="Список мест:&lt;br&gt;отображение доступных мест&lt;br&gt;на выбранным рейсом" style="shape=display;whiteSpace=wrap;html=1;strokeColor=#23445D;strokeWidth=3;align=center;verticalAlign=middle;fontFamily=Times New Roman;fontSize=15;fontColor=default;fillColor=default;" vertex="1" parent="1">
          <mxGeometry x="280" y="740" width="280" height="80" as="geometry" />
        </mxCell>
        <mxCell id="4OKsengiXGphoASJLnkh-25" style="edgeStyle=orthogonalEdgeStyle;rounded=0;orthogonalLoop=1;jettySize=auto;html=1;exitX=0.5;exitY=1;exitDx=0;exitDy=0;entryX=0.5;entryY=0;entryDx=0;entryDy=0;fontFamily=Helvetica;fontSize=12;fontColor=default;strokeWidth=2;strokeColor=#23445D;" edge="1" parent="1" source="4OKsengiXGphoASJLnkh-14" target="4OKsengiXGphoASJLnkh-15">
          <mxGeometry relative="1" as="geometry" />
        </mxCell>
        <mxCell id="4OKsengiXGphoASJLnkh-14" value="&lt;font style=&quot;font-size: 15px;&quot; face=&quot;Times New Roman&quot;&gt;Выбор мест в самолёте&lt;br&gt;&lt;/font&gt;" style="rounded=0;whiteSpace=wrap;html=1;strokeColor=#23445D;strokeWidth=3;align=center;verticalAlign=middle;fontFamily=Helvetica;fontSize=12;fontColor=default;fillColor=default;" vertex="1" parent="1">
          <mxGeometry x="280" y="860" width="280" height="80" as="geometry" />
        </mxCell>
        <mxCell id="4OKsengiXGphoASJLnkh-26" style="edgeStyle=orthogonalEdgeStyle;rounded=0;orthogonalLoop=1;jettySize=auto;html=1;exitX=0.5;exitY=1;exitDx=0;exitDy=0;entryX=0.5;entryY=0;entryDx=0;entryDy=0;fontFamily=Helvetica;fontSize=12;fontColor=default;strokeWidth=2;strokeColor=#23445D;" edge="1" parent="1" source="4OKsengiXGphoASJLnkh-15" target="4OKsengiXGphoASJLnkh-16">
          <mxGeometry relative="1" as="geometry" />
        </mxCell>
        <mxCell id="4OKsengiXGphoASJLnkh-15" value="&lt;font style=&quot;font-size: 15px;&quot;&gt;Выбор дополнительных опций&lt;br&gt;(таких как питание и багаж)&lt;/font&gt;&lt;font style=&quot;font-size: 14px;&quot;&gt;&lt;br style=&quot;font-size: 14px;&quot;&gt;&lt;/font&gt;" style="rounded=0;whiteSpace=wrap;html=1;strokeColor=#23445D;strokeWidth=3;align=center;verticalAlign=middle;fontFamily=Times New Roman;fontSize=14;fontColor=default;fillColor=default;" vertex="1" parent="1">
          <mxGeometry x="280" y="980" width="280" height="80" as="geometry" />
        </mxCell>
        <mxCell id="4OKsengiXGphoASJLnkh-45" style="edgeStyle=orthogonalEdgeStyle;rounded=0;orthogonalLoop=1;jettySize=auto;html=1;exitX=0.5;exitY=1;exitDx=0;exitDy=0;entryX=0.5;entryY=0;entryDx=0;entryDy=0;fontFamily=Helvetica;fontSize=12;fontColor=default;strokeColor=#23445D;strokeWidth=2;" edge="1" parent="1" source="4OKsengiXGphoASJLnkh-16" target="4OKsengiXGphoASJLnkh-12">
          <mxGeometry relative="1" as="geometry" />
        </mxCell>
        <mxCell id="4OKsengiXGphoASJLnkh-16" value="&lt;font style=&quot;font-size: 15px;&quot;&gt;Расчёт стоимости:&lt;br&gt;&lt;span style=&quot;color: rgb(13, 13, 13); text-align: left; background-color: rgb(255, 255, 255);&quot;&gt;система рассчитывает общую&lt;br&gt;стоимость с учётом выбранных услуг&lt;/span&gt;&lt;/font&gt;" style="shape=process;whiteSpace=wrap;html=1;backgroundOutline=1;strokeColor=#23445D;strokeWidth=3;align=center;verticalAlign=middle;fontFamily=Times New Roman;fontSize=14;fontColor=default;fillColor=default;size=0.03571428571428571;" vertex="1" parent="1">
          <mxGeometry x="280" y="1100" width="280" height="80" as="geometry" />
        </mxCell>
        <mxCell id="4OKsengiXGphoASJLnkh-27" style="rounded=0;orthogonalLoop=1;jettySize=auto;html=1;exitX=0.5;exitY=1;exitDx=0;exitDy=0;fontFamily=Helvetica;fontSize=12;fontColor=default;strokeWidth=2;strokeColor=#23445D;" edge="1" parent="1">
          <mxGeometry relative="1" as="geometry">
            <mxPoint x="419.38" y="340" as="sourcePoint" />
            <mxPoint x="419.38" y="380" as="targetPoint" />
          </mxGeometry>
        </mxCell>
        <mxCell id="4OKsengiXGphoASJLnkh-28" style="rounded=0;orthogonalLoop=1;jettySize=auto;html=1;exitX=0.5;exitY=1;exitDx=0;exitDy=0;fontFamily=Helvetica;fontSize=12;fontColor=default;strokeWidth=2;strokeColor=#23445D;" edge="1" parent="1">
          <mxGeometry relative="1" as="geometry">
            <mxPoint x="419.37" y="820" as="sourcePoint" />
            <mxPoint x="419.37" y="860" as="targetPoint" />
          </mxGeometry>
        </mxCell>
        <mxCell id="4OKsengiXGphoASJLnkh-33" style="edgeStyle=orthogonalEdgeStyle;rounded=0;orthogonalLoop=1;jettySize=auto;html=1;exitX=0.5;exitY=1;exitDx=0;exitDy=0;entryX=0.5;entryY=0;entryDx=0;entryDy=0;fontFamily=Helvetica;fontSize=12;fontColor=default;strokeColor=#23445D;strokeWidth=2;" edge="1" parent="1" source="4OKsengiXGphoASJLnkh-31" target="4OKsengiXGphoASJLnkh-32">
          <mxGeometry relative="1" as="geometry" />
        </mxCell>
        <mxCell id="4OKsengiXGphoASJLnkh-31" value="&lt;font style=&quot;font-size: 15px;&quot;&gt;Оплата билета&lt;/font&gt;" style="rounded=0;whiteSpace=wrap;html=1;strokeColor=#23445D;strokeWidth=3;align=center;verticalAlign=middle;fontFamily=Times New Roman;fontSize=14;fontColor=default;fillColor=default;" vertex="1" parent="1">
          <mxGeometry x="280" y="1340" width="280" height="80" as="geometry" />
        </mxCell>
        <mxCell id="4OKsengiXGphoASJLnkh-47" style="edgeStyle=orthogonalEdgeStyle;rounded=0;orthogonalLoop=1;jettySize=auto;html=1;exitX=0.5;exitY=1;exitDx=0;exitDy=0;entryX=0.5;entryY=0;entryDx=0;entryDy=0;fontFamily=Helvetica;fontSize=12;fontColor=default;strokeWidth=2;strokeColor=#23445D;" edge="1" parent="1" source="4OKsengiXGphoASJLnkh-32" target="4OKsengiXGphoASJLnkh-46">
          <mxGeometry relative="1" as="geometry" />
        </mxCell>
        <mxCell id="4OKsengiXGphoASJLnkh-32" value="&lt;font style=&quot;font-size: 15px;&quot;&gt;Бронирование места&lt;/font&gt;" style="shape=process;whiteSpace=wrap;html=1;backgroundOutline=1;strokeColor=#23445D;strokeWidth=3;align=center;verticalAlign=middle;fontFamily=Times New Roman;fontSize=14;fontColor=default;fillColor=default;size=0.03571428571428571;" vertex="1" parent="1">
          <mxGeometry x="280" y="1460" width="280" height="80" as="geometry" />
        </mxCell>
        <mxCell id="4OKsengiXGphoASJLnkh-35" value="Билет" style="shape=document;whiteSpace=wrap;html=1;boundedLbl=1;strokeColor=#23445D;strokeWidth=3;align=center;verticalAlign=middle;fontFamily=Times New Roman;fontSize=15;fontColor=default;fillColor=default;size=0.25;" vertex="1" parent="1">
          <mxGeometry x="600" y="1580" width="200" height="80" as="geometry" />
        </mxCell>
        <mxCell id="4OKsengiXGphoASJLnkh-43" style="edgeStyle=orthogonalEdgeStyle;rounded=0;orthogonalLoop=1;jettySize=auto;html=1;exitX=0.5;exitY=1;exitDx=0;exitDy=0;fontFamily=Helvetica;fontSize=12;fontColor=default;strokeWidth=2;strokeColor=#23445D;" edge="1" parent="1" source="4OKsengiXGphoASJLnkh-37" target="4OKsengiXGphoASJLnkh-13">
          <mxGeometry relative="1" as="geometry" />
        </mxCell>
        <mxCell id="4OKsengiXGphoASJLnkh-37" value="&lt;font style=&quot;font-size: 15px;&quot;&gt;Есть свободные&lt;br style=&quot;&quot;&gt;места на рейсе?&lt;/font&gt;" style="rhombus;whiteSpace=wrap;html=1;strokeColor=#23445D;strokeWidth=3;align=center;verticalAlign=middle;fontFamily=Times New Roman;fontSize=14;fontColor=default;fillColor=default;" vertex="1" parent="1">
          <mxGeometry x="280" y="620" width="280" height="80" as="geometry" />
        </mxCell>
        <mxCell id="4OKsengiXGphoASJLnkh-40" style="edgeStyle=orthogonalEdgeStyle;rounded=0;orthogonalLoop=1;jettySize=auto;html=1;exitX=0;exitY=0.5;exitDx=0;exitDy=0;entryX=0;entryY=0.5;entryDx=0;entryDy=0;entryPerimeter=0;fontFamily=Helvetica;fontSize=12;fontColor=default;strokeWidth=2;strokeColor=#23445D;" edge="1" parent="1" source="4OKsengiXGphoASJLnkh-37" target="4OKsengiXGphoASJLnkh-8">
          <mxGeometry relative="1" as="geometry">
            <Array as="points">
              <mxPoint x="120" y="660" />
              <mxPoint x="120" y="300" />
            </Array>
          </mxGeometry>
        </mxCell>
        <mxCell id="4OKsengiXGphoASJLnkh-41" value="да" style="text;html=1;strokeColor=none;fillColor=none;align=center;verticalAlign=middle;whiteSpace=wrap;rounded=0;fontSize=16;fontFamily=Times New Roman;fontColor=default;strokeWidth=2;" vertex="1" parent="1">
          <mxGeometry x="420" y="700" width="60" height="40" as="geometry" />
        </mxCell>
        <mxCell id="4OKsengiXGphoASJLnkh-42" value="нет" style="text;html=1;strokeColor=none;fillColor=none;align=center;verticalAlign=middle;whiteSpace=wrap;rounded=0;fontSize=16;fontFamily=Times New Roman;fontColor=default;strokeWidth=2;" vertex="1" parent="1">
          <mxGeometry x="120" y="620" width="160" height="40" as="geometry" />
        </mxCell>
        <mxCell id="4OKsengiXGphoASJLnkh-48" style="edgeStyle=orthogonalEdgeStyle;rounded=0;orthogonalLoop=1;jettySize=auto;html=1;exitX=1;exitY=0.5;exitDx=0;exitDy=0;entryX=0;entryY=0.5;entryDx=0;entryDy=0;fontFamily=Helvetica;fontSize=12;fontColor=default;strokeWidth=2;strokeColor=#23445D;" edge="1" parent="1" source="4OKsengiXGphoASJLnkh-46" target="4OKsengiXGphoASJLnkh-35">
          <mxGeometry relative="1" as="geometry" />
        </mxCell>
        <mxCell id="4OKsengiXGphoASJLnkh-50" style="edgeStyle=orthogonalEdgeStyle;rounded=0;orthogonalLoop=1;jettySize=auto;html=1;exitX=0.5;exitY=1;exitDx=0;exitDy=0;entryX=0.5;entryY=0;entryDx=0;entryDy=0;fontFamily=Helvetica;fontSize=14;fontColor=default;strokeWidth=2;strokeColor=#23445D;" edge="1" parent="1" source="4OKsengiXGphoASJLnkh-46" target="4OKsengiXGphoASJLnkh-49">
          <mxGeometry relative="1" as="geometry" />
        </mxCell>
        <mxCell id="4OKsengiXGphoASJLnkh-46" value="Печать билета" style="shape=process;whiteSpace=wrap;html=1;backgroundOutline=1;strokeColor=#23445D;strokeWidth=3;align=center;verticalAlign=middle;fontFamily=Times New Roman;fontSize=15;fontColor=default;fillColor=default;size=0.03571428571428571;" vertex="1" parent="1">
          <mxGeometry x="280" y="1580" width="280" height="80" as="geometry" />
        </mxCell>
        <mxCell id="4OKsengiXGphoASJLnkh-49" value="Конец" style="rounded=1;whiteSpace=wrap;html=1;strokeWidth=3;arcSize=50;fontSize=20;fontFamily=Times New Roman;strokeColor=#23445D;" vertex="1" parent="1">
          <mxGeometry x="280" y="1700" width="280" height="60" as="geometry" />
        </mxCell>
      </root>
    </mxGraphModel>
  </diagram>
</mxfile>
